<!DOCTYPE svg PUBLIC "-//W3C//DTD SVG 1.1//EN" "http://www.w3.org/Graphics/SVG/1.1/DTD/svg11.dtd">

<!-- Uploaded to: SVG Repo, www.svgrepo.com, Transformed by: SVG Repo Mixer Tools -->
<svg width="500px" height="500px" viewBox="-104 -104 608.00 608.00" fill="none" xmlns="http://www.w3.org/2000/svg" stroke="#ffffff">

<g id="SVGRepo_bgCarrier" stroke-width="0">

<path transform="translate(-104, -104), scale(19)" d="M16,27.06473079510033C18.624274320599184,26.30630596125612,19.972962087369474,23.775977342820198,22.21399984759595,22.21399984759595C25.47954787992324,19.937950498229533,30.77413206754313,19.825202224483228,31.87505555897951,16C33.04012152567344,11.951932207702496,30.307186465624145,7.6470844601263455,27.236348203521572,4.763651796478429C24.25031836935469,1.959851913977039,20.018534543522556,0.30063396928312236,16.000000000000004,1.0937594790011644C12.416476361574356,1.80102825609661,10.341316527792982,5.332276242427158,8.467917807659106,8.467917807659102C7.107184369875284,10.745474785178013,7.611079840876181,13.39774754358143,7.094220645725727,15.999999999999998C6.317194870841749,19.912123940841916,2.233446527783783,24.158575889362226,4.734304573124099,27.265695426875894C7.1824241167370415,30.30729152158494,12.2490707462023,28.14876300687893,16,27.06473079510033" fill="#ffff" strokewidth="0"/>

</g>

<g id="SVGRepo_tracerCarrier" stroke-linecap="round" stroke-linejoin="round"/>

<g id="SVGRepo_iconCarrier"> <path d="M144.105 103.972C181.602 77.7515 218.202 70.1204 257.953 91.0398C364.871 147.303 318.239 339.031 185.091 319.627C112.592 309.058 40.064 217.747 116.784 136.321" stroke="#ffff" stroke-opacity="0.9" stroke-width="1.2" stroke-linecap="round" stroke-linejoin="round"/> </g>

</svg>