<!DOCTYPE svg PUBLIC "-//W3C//DTD SVG 1.1//EN" "http://www.w3.org/Graphics/SVG/1.1/DTD/svg11.dtd">

<!-- Uploaded to: SVG Repo, www.svgrepo.com, Transformed by: SVG Repo Mixer Tools -->
<svg width="500px" height="500px" viewBox="-2.4 -2.4 28.80 28.80" fill="none" xmlns="http://www.w3.org/2000/svg">

<g id="SVGRepo_bgCarrier" stroke-width="0">

<path transform="translate(-2.4, -2.4), scale(0.8999999999999999)" d="M16,29.7579659479005C19.044638711147197,30.21963140388927,22.591080458477975,30.28247505238183,24.88057858138049,28.22306780273565C27.139013192888243,26.19160223162849,26.73688622228021,22.647220560767597,27.236300665492784,19.65089539901352C27.652450355068364,17.1541318334458,27.870908966485903,14.759331118845225,27.54299088980077,12.24945490646673C27.138888220375936,9.156463853332685,27.474685167181,5.493344103993558,25.119403161001145,3.448218363710355C22.74553339872675,1.3869526035300384,19.127840413814482,1.9091928949849337,16,2.2265074519174437C13.14424663532387,2.5162191998757177,10.453280510334153,3.48216254242094,8.132634042724934,5.17149973467621C5.813778100431666,6.859533496593371,3.5673534793390957,8.955701321611546,2.9182623259602423,11.749485768752432C2.290856302632061,14.449934204834735,3.6855999493965337,17.097249038570688,4.768976292393507,19.64918081146007C5.756656269155764,21.975696366686005,7.003353401032969,24.106280200161464,8.881947233996586,25.797159136086922C10.950748282845256,27.65923919551106,13.248063346990286,29.34068356719884,16,29.7579659479005" fill="#ffff" strokewidth="0"/>

</g>

<g id="SVGRepo_tracerCarrier" stroke-linecap="round" stroke-linejoin="round"/>

<g id="SVGRepo_iconCarrier"> <rect x="4" y="4" width="16" height="16" rx="2" stroke="#ffff" stroke-width="2" stroke-linecap="round" stroke-linejoin="round"/> </g>

</svg>