<!DOCTYPE svg PUBLIC "-//W3C//DTD SVG 1.1//EN" "http://www.w3.org/Graphics/SVG/1.1/DTD/svg11.dtd">

<!-- Uploaded to: SVG Repo, www.svgrepo.com, Transformed by: SVG Repo Mixer Tools -->
<svg width="410px" height="410px" viewBox="-40 -40 480.00 480.00" fill="none" xmlns="http://www.w3.org/2000/svg">

<g id="SVGRepo_bgCarrier" stroke-width="0">

<path transform="translate(-40, -40), scale(15)" d="M16,28.425650933757424C19.542631943807244,28.911857655541613,23.300920472873813,28.338793106040626,26.03958131196898,26.03958131196898C28.9884431168355,23.56389766978546,30.601270703023978,19.845136602123087,30.800569351762533,16C31.010862513255034,11.942742524603148,30.197100654723712,7.535358992116602,27.137202772362645,4.862797227637357C24.19321585201658,2.2914738760316324,19.90689568628017,2.950771890788576,16,3.0729556139558554C12.27730568113302,3.189378648666033,7.914390218127075,2.6701606674816176,5.538279024896255,5.538279024896253C3.224867617421028,8.330714726110335,4.72671190527762,12.41786305078039,5.290506515651941,15.999999999999998C5.73339524623086,18.81394688244074,6.52387561521348,21.458652273134007,8.383604287130535,23.616395712869462C10.42141691015669,25.980760410334803,12.907626190024494,28.00123966085967,16,28.425650933757424" fill="#ffff" strokewidth="0"/>

</g>

<g id="SVGRepo_tracerCarrier" stroke-linecap="round" stroke-linejoin="round"/>

<g id="SVGRepo_iconCarrier"> <path d="M144.105 103.972C181.602 77.7515 218.202 70.1204 257.953 91.0398C364.871 147.303 318.239 339.031 185.091 319.627C112.592 309.058 40.064 217.747 116.784 136.321" stroke="#ffff" stroke-opacity="0.9" stroke-width="16" stroke-linecap="round" stroke-linejoin="round"/> </g>

</svg>